<svg width="229" height="30" viewBox="0 0 229 30" fill="none" xmlns="http://www.w3.org/2000/svg">
<path d="M47.8717 27.1236C49.1181 26.9206 49.2796 26.1098 49.3604 24.2026C49.4411 21.6474 49.4809 11.9118 49.4809 5.30026C49.4809 5.1787 49.3206 4.9757 49.1989 4.9757C48.4744 4.89427 44.7738 4.93558 43.5672 4.9757C42.8838 4.9757 42.3606 5.3817 42.0388 5.86794C41.4759 6.67875 40.9527 7.85542 40.3898 9.47822C40.2295 9.59978 39.4243 9.39678 39.3845 9.23509C39.6665 7.53204 40.0282 4.69245 40.1487 2.9481C40.1885 2.9481 40.4308 2.86666 40.5513 2.90797C41.2757 3.27265 42.4414 3.47565 43.689 3.47565H61.7494C61.7892 3.47565 61.9109 3.39422 61.9109 3.23253V1.44805C61.9109 1.32648 62.0315 1.12349 62.1122 1.12349C63.3586 1.08336 64.5255 0.637239 64.8075 0.595932C64.8883 0.595932 65.0088 0.677367 65.0088 0.798929C65.0088 1.04205 64.969 2.05585 64.969 5.13857C64.9292 7.73504 64.9292 13.21 64.9292 14.3867C64.9292 14.4268 65.0498 14.4682 65.0907 14.4268C67.2231 12.8041 69.1529 11.9932 70.6416 11.9932C73.7383 11.9932 75.468 14.3053 75.468 18.3216C75.468 20.4719 75.5078 24.3253 75.5488 26.1098C75.5488 26.3942 75.6295 26.7589 75.9514 26.9206C76.4335 27.2853 77.0374 27.4068 78.0427 27.5296C78.1235 27.6511 78.0427 28.3817 77.8824 28.4631C77.2785 28.4631 75.5897 28.3003 73.7792 28.3416C72.4919 28.3817 70.7223 28.423 70.1594 28.4631C70.0389 28.3416 70.0389 27.6924 70.1594 27.5296C70.8031 27.408 71.4058 27.3266 71.7276 27.205C72.2906 27.002 72.4111 26.7589 72.4521 25.096C72.5328 23.0271 72.6534 18.9305 72.2906 17.1048C72.0495 15.888 71.084 14.1837 68.5502 14.1837C67.4641 14.1837 66.3383 14.5484 65.4535 15.2388C65.1317 15.5233 64.9713 15.9281 64.9713 16.2125C64.9713 19.0108 64.9713 24.284 65.0521 25.4205C65.0919 26.6775 65.2932 27.0433 66.0984 27.2865C66.5408 27.3679 66.8228 27.4493 67.5063 27.5296C67.6678 27.6511 67.587 28.3003 67.5063 28.4218C66.9831 28.4218 64.9725 28.3404 63.3633 28.3404C62.0362 28.3404 60.3064 28.4619 59.582 28.4619C59.4205 28.2991 59.4614 27.6511 59.582 27.5284C60.2257 27.447 60.7078 27.3655 61.0707 27.244C61.7541 27.041 61.8747 26.5948 61.9156 25.4194C61.9554 24.4457 61.9964 19.6186 61.9964 18.6048C61.9964 8.6261 61.9964 6.92305 61.9566 5.46195C61.9566 5.25895 61.836 5.01583 61.595 5.01583C59.9062 4.89427 53.9527 4.9344 53.068 5.01583C52.9474 5.05596 52.8667 5.25895 52.8667 5.38052C52.8667 11.2214 52.8667 22.6199 52.9872 24.7289C53.1077 26.5134 53.4694 26.8793 54.3553 27.1224C54.999 27.3254 55.6017 27.4068 56.8083 27.5284C56.8891 27.6913 56.8083 28.3392 56.6878 28.4619C55.0388 28.4218 52.6654 28.3404 51.0971 28.3404C49.0455 28.3404 46.3912 28.4619 45.2654 28.4619C45.1448 28.2991 45.1448 27.6511 45.2654 27.5284C46.5527 27.4068 47.317 27.2853 47.8799 27.1224L47.8717 27.1236Z" fill="white"/>
<path d="M93.5253 24.7706C93.5651 25.055 93.4446 25.6227 93.365 25.7443C91.5147 27.7719 88.94 28.827 87.0101 28.827C84.9585 28.827 83.3493 28.1377 82.1837 26.8796C80.6154 25.2167 80.0115 22.7831 80.0115 20.5513C80.0115 17.1039 81.4194 14.6703 83.5108 13.2907C84.6776 12.52 86.5677 11.9924 87.7345 11.9924C91.5954 11.9924 92.9238 15.5213 93.2456 17.6716C93.2854 17.7932 93.4469 17.956 93.8085 18.0363C93.8483 18.1579 93.688 18.7255 93.5674 18.807C91.9184 19.2932 86.3676 19.5776 83.1492 19.6992C82.9888 19.6992 82.9081 19.9423 82.9081 20.1453C82.9479 21.6053 83.5518 23.3496 84.4763 24.4047C85.6829 25.7844 87.1306 26.3108 88.8604 26.3108C90.4286 26.3108 91.8775 25.9048 93.365 24.6077C93.4048 24.6478 93.5253 24.7293 93.5253 24.7694V24.7706ZM82.9865 18.1189C82.9865 18.2405 83.0673 18.4033 83.1468 18.4033C84.3535 18.4435 89.1003 18.3219 89.9441 18.1189C90.0249 18.0788 90.1852 17.956 90.1852 17.7943C89.9441 15.7254 88.7375 13.2918 86.4846 13.2918C84.6343 13.2918 83.1866 15.0763 82.9853 18.1189H82.9865Z" fill="white"/>
<path d="M95.7776 3.71901C96.9035 3.71901 97.8292 3.84057 100.845 3.84057C103.298 3.84057 104.948 3.75914 105.954 3.71901C106.034 3.80045 106.074 4.32801 105.954 4.40826C105.069 4.52982 104.747 4.57113 104.305 4.73282C103.42 5.01725 103.339 5.5035 103.299 6.59873C103.259 7.41072 103.259 11.4659 103.219 15.1175C103.179 18.9308 103.219 24.2441 103.299 25.5825C103.339 26.2717 103.581 26.7178 104.024 26.7993C104.908 27.0424 108.046 27.1238 109.614 27.0424C110.418 27.0424 111.022 26.8394 111.826 25.9873C112.63 25.1765 113.918 23.1076 114.642 21.3231C114.763 21.2015 115.286 21.3231 115.326 21.4859C115.124 22.7429 113.998 26.8807 113.274 28.0161C113.073 28.3406 112.63 28.5023 110.821 28.5023C108.126 28.5023 103.46 28.3394 100.886 28.3394C98.9152 28.3394 97.1048 28.461 95.4558 28.461C95.3352 28.3796 95.3352 27.852 95.4558 27.7718C96.5816 27.6089 96.9444 27.6089 97.5073 27.4472C98.2716 27.2442 98.5536 26.7981 98.6332 25.6214C98.7139 24.6477 98.8345 21.8896 98.8345 14.7505C98.8345 10.2881 98.8345 8.05748 98.7537 6.71912C98.714 5.58375 98.6332 5.01607 97.5073 4.69151C97.0252 4.56995 96.3815 4.48851 95.7378 4.40708C95.6571 4.32564 95.698 3.75796 95.7776 3.71783V3.71901Z" fill="white"/>
<path d="M124.577 15.8881C123.934 14.8743 122.727 14.3869 121.641 14.3869C120.756 14.3869 120.032 14.63 119.751 14.8732C119.429 15.1163 118.584 16.6576 118.343 17.3469C118.181 17.4283 117.579 16.9008 117.579 16.6978C117.579 16.4546 118.183 14.7917 118.343 14.6288C120.233 13.2492 122.808 12.1551 123.853 12.1551C125.824 12.1551 127.271 13.0474 128.116 14.3857C128.8 15.5211 129.001 17.2253 129.001 18.5236C129.001 20.4709 128.92 23.1075 128.92 24.689C128.92 25.3381 129.161 26.4735 130.248 26.4735C130.65 26.4735 130.931 26.4333 131.454 26.2705C131.454 26.392 131.334 27.1226 131.253 27.204C130.287 28.2993 128.92 28.8268 127.512 28.8268C126.225 28.8268 125.581 28.2993 125.301 27.61C125.22 27.407 125.139 27.0423 125.099 26.8393C125.099 26.7579 124.939 26.7992 124.939 26.7992C123.128 28.1777 121.399 28.8268 120.715 28.8268C119.87 28.8268 119.106 28.5023 118.462 27.8944C117.617 27.0836 117.054 25.704 117.054 24.1626C117.054 23.7165 117.416 22.4997 117.658 22.0536C118.584 21.4458 123.29 20.2691 124.898 19.5385C124.979 19.4984 125.18 19.214 125.18 19.0924C125.22 18.6463 125.18 18.5247 125.18 18.1187C125.18 17.3079 125.02 16.5373 124.576 15.8881H124.577ZM125.02 20.3505C123.612 20.8368 121.56 21.4458 121.199 21.8517C121.078 21.9733 120.877 22.8254 120.877 23.3117C120.877 25.2177 122.123 26.4345 123.531 26.4345C123.934 26.4345 124.457 26.3531 124.777 26.11C124.979 25.9471 125.099 25.6638 125.099 25.2578C125.139 24.0009 125.139 21.2015 125.139 20.5122C125.139 20.4721 125.058 20.3505 125.018 20.3505H125.02Z" fill="white"/>
<path d="M136.805 27.0825C137.851 27.8131 139.137 28.0963 140.626 28.0963C142.838 28.0963 144.407 26.6364 144.407 24.1615C144.407 21.6866 143.12 20.3081 139.862 18.1578C135.96 15.6026 133.908 13.6552 133.908 10.0863C133.908 5.6239 137.528 3.11005 141.912 3.11005C144.566 3.11005 146.217 3.6376 147.744 3.71903C147.503 5.22026 147.221 6.84188 147.06 9.19522C146.98 9.31679 146.457 9.35809 146.377 9.27666C146.136 6.7215 145.694 5.54482 144.607 4.85558C143.682 4.20646 142.757 4.00346 141.511 4.00346C139.017 4.00346 137.528 5.74782 137.528 7.97842C137.528 9.84434 138.413 11.1827 140.022 12.3995C141.59 13.6163 142.838 14.2654 144.366 15.2792C146.86 16.9823 148.47 18.8081 148.47 21.6075C148.47 25.9472 145.172 29.0712 139.54 29.0712C137.167 29.0712 134.673 28.3819 133.949 27.8945C133.547 27.2454 133.104 23.2704 132.984 22.0536C133.065 21.892 133.588 21.7692 133.708 21.892C134.472 24.7315 135.357 26.0699 136.805 27.0837V27.0825Z" fill="white"/>
<path d="M158.606 15.8881C157.962 14.8743 156.755 14.3869 155.669 14.3869C154.785 14.3869 154.06 14.63 153.779 14.8732C153.457 15.1163 152.613 16.6576 152.371 17.3469C152.21 17.4283 151.607 16.9008 151.607 16.6978C151.607 16.4546 152.211 14.7917 152.371 14.6288C154.261 13.2492 156.836 12.1551 157.881 12.1551C159.852 12.1551 161.3 13.0474 162.145 14.3857C162.828 15.5211 163.03 17.2253 163.03 18.5236C163.03 20.4709 162.949 23.1075 162.949 24.689C162.949 25.3381 163.19 26.4735 164.276 26.4735C164.679 26.4735 164.959 26.4333 165.483 26.2705C165.483 26.392 165.362 27.1226 165.281 27.204C164.316 28.2993 162.949 28.8268 161.541 28.8268C160.254 28.8268 159.61 28.2993 159.329 27.61C159.248 27.407 159.168 27.0423 159.128 26.8393C159.128 26.7579 158.967 26.7992 158.967 26.7992C157.157 28.1777 155.427 28.8268 154.744 28.8268C153.899 28.8268 153.134 28.5023 152.491 27.8944C151.646 27.0836 151.083 25.704 151.083 24.1626C151.083 23.7165 151.445 22.4997 151.687 22.0536C152.613 21.4458 157.318 20.2691 158.926 19.5385C159.007 19.4984 159.208 19.214 159.208 19.0924C159.248 18.6463 159.208 18.5247 159.208 18.1187C159.208 17.3079 159.048 16.5373 158.605 15.8881H158.606ZM159.048 20.3505C157.64 20.8368 155.589 21.4458 155.227 21.8517C155.106 21.9733 154.905 22.8254 154.905 23.3117C154.905 25.2177 156.152 26.4345 157.559 26.4345C157.962 26.4345 158.485 26.3531 158.806 26.11C159.007 25.9471 159.128 25.6638 159.128 25.2578C159.168 24.0009 159.168 21.2015 159.168 20.5122C159.168 20.4721 159.087 20.3505 159.047 20.3505H159.048Z" fill="white"/>
<path d="M166.088 27.7731C166.771 27.6515 167.053 27.6102 167.496 27.4084C167.938 27.2054 168.139 26.9222 168.179 25.664C168.219 23.8796 168.26 18.6465 168.26 14.8344C168.26 10.7379 168.26 6.03238 168.098 4.36946C168.058 3.92334 168.018 3.43709 167.575 3.27422C167.253 3.11135 166.811 2.98979 166.127 2.90954C166.007 2.8281 166.047 2.42329 166.127 2.30055C168.058 2.17899 171.074 1.44843 172.443 0.799316C172.523 0.839444 172.644 0.961005 172.644 1.04244C172.443 1.48856 172.322 2.82692 172.322 5.38209C172.282 7.40969 172.282 10.5738 172.282 14.144C172.282 21.04 172.282 24.0814 172.363 25.664C172.444 26.921 172.564 27.1653 173.167 27.4485C173.609 27.6515 174.012 27.6917 174.494 27.7731C174.534 27.8946 174.494 28.3408 174.413 28.4623C173.931 28.4623 172.201 28.3408 170.11 28.3408C168.019 28.3408 166.692 28.4623 166.088 28.4623C166.007 28.3408 166.007 27.8946 166.088 27.7731Z" fill="white"/>
<path d="M175.58 27.7731C176.263 27.6515 176.545 27.6102 176.988 27.4084C177.43 27.2054 177.631 26.9222 177.671 25.664C177.711 23.8796 177.752 18.6465 177.752 14.8344C177.752 10.7379 177.752 6.03238 177.591 4.36946C177.551 3.92334 177.51 3.43709 177.067 3.27422C176.746 3.11135 176.303 2.98979 175.62 2.90954C175.499 2.8281 175.539 2.42329 175.62 2.30055C177.551 2.17899 180.567 1.44843 181.935 0.799316C182.016 0.839444 182.136 0.961005 182.136 1.04244C181.935 1.48856 181.814 2.82692 181.814 5.38209C181.774 7.40969 181.774 10.5738 181.774 14.144C181.774 21.04 181.774 24.0814 181.855 25.664C181.936 26.921 182.057 27.1653 182.659 27.4485C183.102 27.6515 183.504 27.6917 183.986 27.7731C184.026 27.8946 183.986 28.3408 183.906 28.4623C183.423 28.4623 181.694 28.3408 179.602 28.3408C177.511 28.3408 176.184 28.4623 175.58 28.4623C175.499 28.3408 175.499 27.8946 175.58 27.7731Z" fill="white"/>
<path d="M193.359 28.4623C192.393 28.4623 190.906 28.3407 189.336 28.3407C187.326 28.3407 185.918 28.4623 185.073 28.4623C184.992 28.3808 184.992 27.8132 185.073 27.773C185.555 27.7329 186.078 27.6515 186.441 27.4886C187.004 27.2856 187.165 26.7994 187.205 25.7856C187.245 24.852 187.286 21.7292 187.286 19.7016C187.286 18.2003 187.286 16.4572 187.205 15.8482C187.205 15.5236 187.165 15.1176 186.923 14.7931C186.561 14.4284 186.199 14.3068 185.555 14.1038C185.515 14.0224 185.515 13.4948 185.555 13.4146C186.56 13.3744 189.658 12.887 191.428 12.0349C191.428 13.0487 191.347 16.5775 191.347 18.8896C191.347 20.9986 191.347 24.1226 191.387 25.9071C191.427 27.0024 191.669 27.2856 192.191 27.4886C192.473 27.57 192.834 27.6916 193.518 27.773C193.518 27.8946 193.518 28.382 193.356 28.4623H193.359ZM190.462 8.50607C190.14 8.66894 188.693 8.91206 188.209 8.70906C187.566 8.46594 187.285 7.65395 187.244 7.12758C187.163 6.64133 187.244 5.95091 187.485 5.62635C187.846 5.30179 188.933 4.9371 189.617 4.9371C190.381 4.9371 190.905 5.26166 191.065 5.38322C191.306 5.70778 191.387 6.31677 191.387 6.60002C191.387 7.3707 190.944 8.14138 190.462 8.50607Z" fill="white"/>
<path d="M202.529 15.8881C201.886 14.8743 200.679 14.3869 199.593 14.3869C198.708 14.3869 197.984 14.63 197.703 14.8732C197.381 15.1163 196.536 16.6576 196.295 17.3469C196.133 17.4283 195.531 16.9008 195.531 16.6978C195.531 16.4546 196.135 14.7917 196.295 14.6288C198.185 13.2492 200.76 12.1551 201.805 12.1551C203.776 12.1551 205.223 13.0474 206.068 14.3857C206.752 15.5211 206.953 17.2253 206.953 18.5236C206.953 20.4709 206.872 23.1075 206.872 24.689C206.872 25.3381 207.113 26.4735 208.2 26.4735C208.602 26.4735 208.883 26.4333 209.406 26.2705C209.406 26.392 209.286 27.1226 209.205 27.204C208.239 28.2993 206.872 28.8268 205.464 28.8268C204.177 28.8268 203.533 28.2993 203.253 27.61C203.172 27.407 203.091 27.0423 203.051 26.8393C203.051 26.7579 202.891 26.7992 202.891 26.7992C201.08 28.1777 199.351 28.8268 198.667 28.8268C197.822 28.8268 197.058 28.5023 196.414 27.8944C195.569 27.0836 195.006 25.704 195.006 24.1626C195.006 23.7165 195.368 22.4997 195.61 22.0536C196.536 21.4458 201.242 20.2691 202.85 19.5385C202.931 19.4984 203.132 19.214 203.132 19.0924C203.172 18.6463 203.132 18.5247 203.132 18.1187C203.132 17.3079 202.972 16.5373 202.528 15.8881H202.529ZM202.972 20.3505C201.564 20.8368 199.512 21.4458 199.151 21.8517C199.03 21.9733 198.829 22.8254 198.829 23.3117C198.829 25.2177 200.075 26.4345 201.483 26.4345C201.886 26.4345 202.409 26.3531 202.729 26.11C202.931 25.9471 203.051 25.6638 203.051 25.2578C203.091 24.0009 203.091 21.2015 203.091 20.5122C203.091 20.4721 203.01 20.3505 202.97 20.3505H202.972Z" fill="white"/>
<path d="M211.539 27.5286C212.021 27.3658 212.303 26.8795 212.343 25.8657C212.424 24.6088 212.424 21.3632 212.424 19.7404C212.424 18.4021 212.384 16.1715 212.343 15.8056C212.262 15.3996 212.182 14.8319 210.574 14.3044C210.574 14.2229 210.613 13.7768 210.694 13.6965C212.826 13.4534 215.279 12.763 216.526 12.0336C216.566 12.0738 216.646 12.1965 216.646 12.2768C216.566 13.0073 216.526 13.9397 216.485 14.6289C216.485 14.7505 216.605 14.7918 216.646 14.7104C218.779 13.0061 220.669 12.1552 221.915 12.1552C223.685 12.1552 224.891 12.9259 225.697 14.3044C226.421 15.481 226.622 17.0625 226.622 18.9284C226.622 20.7944 226.582 25.134 226.662 26.4322C226.662 26.7167 226.783 26.9999 227.024 27.1628C227.506 27.4472 227.908 27.649 228.753 27.7718C228.753 27.8933 228.714 28.3394 228.592 28.461C227.988 28.461 227.184 28.3395 224.811 28.3395C222.638 28.3395 221.592 28.4209 220.427 28.461C220.346 28.3796 220.387 27.8119 220.427 27.7718C221.03 27.6903 221.352 27.6089 221.633 27.5286C222.277 27.3658 222.397 26.961 222.478 26.1088C222.559 24.5675 222.64 18.9296 222.317 17.3469C222.155 16.5763 221.834 15.7242 221.15 15.1966C220.627 14.7906 220.064 14.6289 219.219 14.6289C218.535 14.6289 217.57 14.872 216.845 15.4397C216.644 15.6014 216.484 15.8858 216.484 16.332C216.484 18.8871 216.484 24.1603 216.564 25.8645C216.645 27.1215 216.926 27.3658 217.449 27.4873C217.811 27.6089 218.133 27.6903 218.776 27.7718C218.816 27.8532 218.776 28.3394 218.737 28.461C217.53 28.4209 216.203 28.3395 214.353 28.3395C211.819 28.3395 211.134 28.4209 210.33 28.461C210.249 28.3394 210.249 27.9335 210.33 27.7718C210.692 27.7316 211.094 27.6502 211.537 27.5286H211.539Z" fill="white"/>
<path fill-rule="evenodd" clip-rule="evenodd" d="M22.7062 17.1249L31.1782 14.8329L22.7062 12.5409L28.2243 5.6662L20.0355 8.83271L20.4919 0L15.7123 7.41646L10.9327 0L11.3891 8.83271L3.20036 5.6662L8.71729 12.5409L0.24646 14.8329L8.71729 17.1249L3.20036 23.9996L11.3891 20.8331L10.9327 29.6658L15.7123 22.2494L20.4919 29.6658L20.0355 20.8331L28.2243 23.9996L22.7062 17.1249Z" fill="white"/>
<path fill-rule="evenodd" clip-rule="evenodd" d="M17.7319 17.9628L15.712 16.5607L13.6908 17.9628L14.3895 15.5918L12.4421 14.087L14.8939 14.0245L15.712 11.6924L16.5288 14.0245L18.9807 14.087L17.0344 15.5918L17.7319 17.9628Z" fill="#1B321D"/>
</svg>
