<svg width="171" height="23" viewBox="0 0 171 23" fill="none" xmlns="http://www.w3.org/2000/svg">
<path d="M35.6397 20.2976C36.5724 20.1457 36.6933 19.5389 36.7537 18.1117C36.8141 16.1995 36.8439 8.91406 36.8439 3.9664C36.8439 3.87543 36.7239 3.72352 36.6328 3.72352C36.0907 3.66258 33.3214 3.6935 32.4185 3.72352C31.907 3.72352 31.5155 4.02734 31.2747 4.39122C30.8534 4.99797 30.462 5.87852 30.0407 7.09291C29.9207 7.18388 29.3182 7.03197 29.2884 6.91098C29.4995 5.63652 29.7701 3.51155 29.8603 2.20619C29.8901 2.20619 30.0714 2.14525 30.1616 2.17616C30.7037 2.44907 31.576 2.60098 32.5096 2.60098H46.0249C46.0547 2.60098 46.1457 2.54004 46.1457 2.41904V1.08365C46.1457 0.992682 46.2359 0.840772 46.2964 0.840772C47.2291 0.810744 48.1023 0.476896 48.3133 0.445984C48.3738 0.445984 48.464 0.506924 48.464 0.597894C48.464 0.779832 48.4342 1.5385 48.4342 3.8454C48.4044 5.78843 48.4044 9.88558 48.4044 10.7661C48.4044 10.7962 48.4946 10.8271 48.5253 10.7962C50.121 9.58176 51.5652 8.975 52.6792 8.975C54.9965 8.975 56.291 10.7052 56.291 13.7107C56.291 15.3199 56.3207 18.2035 56.3514 19.5389C56.3514 19.7518 56.4118 20.0247 56.6527 20.1457C57.0135 20.4186 57.4654 20.5095 58.2177 20.6014C58.2782 20.6924 58.2177 21.2391 58.0977 21.3C57.6458 21.3 56.3821 21.1781 55.0272 21.209C54.0638 21.2391 52.7396 21.27 52.3184 21.3C52.2281 21.209 52.2281 20.7233 52.3184 20.6014C52.8 20.5104 53.2511 20.4495 53.4919 20.3585C53.9132 20.2066 54.0034 20.0247 54.034 18.7802C54.0945 17.232 54.1847 14.1664 53.9132 12.8001C53.7328 11.8895 53.0102 10.6142 51.1141 10.6142C50.3014 10.6142 49.4589 10.8871 48.7968 11.4038C48.5559 11.6166 48.4359 11.9196 48.4359 12.1324C48.4359 14.2265 48.4359 18.1726 48.4964 19.0231C48.5262 19.9637 48.6768 20.2375 49.2793 20.4195C49.6104 20.4804 49.8215 20.5413 50.3329 20.6014C50.4538 20.6924 50.3934 21.1781 50.3329 21.2691C49.9414 21.2691 48.4368 21.2081 47.2326 21.2081C46.2394 21.2081 44.945 21.2991 44.4029 21.2991C44.282 21.1772 44.3127 20.6924 44.4029 20.6005C44.8846 20.5396 45.2454 20.4786 45.5169 20.3877C46.0284 20.2357 46.1186 19.9019 46.1492 19.0222C46.179 18.2936 46.2097 14.6813 46.2097 13.9227C46.2097 6.45525 46.2097 5.1808 46.1799 4.0874C46.1799 3.93549 46.0897 3.75355 45.9093 3.75355C44.6455 3.66258 40.1903 3.69261 39.5282 3.75355C39.438 3.78358 39.3776 3.93549 39.3776 4.02646C39.3776 8.39739 39.3776 16.9273 39.4678 18.5056C39.558 19.841 39.8286 20.1147 40.4916 20.2967C40.9733 20.4486 41.4243 20.5095 42.3273 20.6005C42.3877 20.7224 42.3273 21.2073 42.2371 21.2991C41.0031 21.2691 39.2269 21.2081 38.0534 21.2081C36.5181 21.2081 34.5318 21.2991 33.6893 21.2991C33.5991 21.1772 33.5991 20.6924 33.6893 20.6005C34.6526 20.5095 35.2245 20.4186 35.6458 20.2967L35.6397 20.2976Z" fill="#1A321D"/>
<path d="M69.8039 18.5367C69.8337 18.7496 69.7434 19.1744 69.6839 19.2654C68.2993 20.7827 66.3725 21.5723 64.9283 21.5723C63.393 21.5723 62.1888 21.0565 61.3165 20.115C60.143 18.8706 59.691 17.0494 59.691 15.3793C59.691 12.7995 60.7446 10.9783 62.3097 9.94588C63.1828 9.36915 64.5973 8.97437 65.4704 8.97437C68.3597 8.97437 69.3537 11.6151 69.5946 13.2243C69.6243 13.3153 69.7452 13.4372 70.0158 13.4972C70.0456 13.5882 69.9256 14.013 69.8354 14.0739C68.6014 14.4378 64.4475 14.6507 62.0391 14.7416C61.9191 14.7416 61.8586 14.9236 61.8586 15.0755C61.8884 16.168 62.3403 17.4734 63.0322 18.2629C63.9352 19.2954 65.0185 19.6893 66.3129 19.6893C67.4865 19.6893 68.5708 19.3855 69.6839 18.4148C69.7137 18.4449 69.8039 18.5058 69.8039 18.5358V18.5367ZM61.9173 13.559C61.9173 13.65 61.9778 13.7719 62.0373 13.7719C62.9403 13.8019 66.4925 13.7109 67.1239 13.559C67.1844 13.529 67.3043 13.4372 67.3043 13.3162C67.1239 11.7679 66.221 9.94676 64.5351 9.94676C63.1504 9.94676 62.0671 11.2822 61.9164 13.559H61.9173Z" fill="#1A321D"/>
<path d="M71.4895 2.78305C72.332 2.78305 73.0247 2.87402 75.2817 2.87402C77.1173 2.87402 78.3522 2.81308 79.1045 2.78305C79.165 2.84399 79.1947 3.23878 79.1045 3.29884C78.4424 3.3898 78.2016 3.42072 77.8705 3.54171C77.2084 3.75456 77.148 4.11844 77.1182 4.93805C77.0884 5.54568 77.0884 8.58034 77.0578 11.313C77.028 14.1666 77.0578 18.1427 77.1182 19.1442C77.148 19.66 77.3293 19.9939 77.6603 20.0548C78.3224 20.2368 80.6705 20.2977 81.844 20.2368C82.4457 20.2368 82.8976 20.0849 83.4993 19.4472C84.101 18.8404 85.0643 17.2922 85.6064 15.9568C85.6967 15.8658 86.0881 15.9568 86.1179 16.0787C85.9673 17.0193 85.1248 20.1158 84.5826 20.9654C84.432 21.2083 84.1009 21.3293 82.747 21.3293C80.73 21.3293 77.2382 21.2074 75.3123 21.2074C73.8375 21.2074 72.4826 21.2984 71.2486 21.2984C71.1584 21.2374 71.1584 20.8426 71.2486 20.7826C72.0911 20.6607 72.3626 20.6607 72.7839 20.5397C73.3558 20.3878 73.5669 20.0539 73.6264 19.1734C73.6868 18.4448 73.7771 16.3807 73.7771 11.0383C73.7771 7.69891 73.7771 6.02968 73.7166 5.02813C73.6868 4.1785 73.6264 3.75368 72.7839 3.5108C72.4231 3.41983 71.9414 3.35889 71.4597 3.29795C71.3993 3.23701 71.4299 2.81219 71.4895 2.78217V2.78305Z" fill="#1A321D"/>
<path d="M93.0412 11.8896C92.5596 11.131 91.6566 10.7662 90.8439 10.7662C90.1818 10.7662 89.6396 10.9481 89.4295 11.1301C89.1886 11.312 88.5563 12.4655 88.3759 12.9812C88.255 13.0422 87.804 12.6474 87.804 12.4955C87.804 12.3136 88.2559 11.0691 88.3759 10.9472C89.7903 9.91479 91.717 9.09607 92.4991 9.09607C93.974 9.09607 95.0573 9.76376 95.6897 10.7653C96.2011 11.6149 96.3518 12.8903 96.3518 13.8618C96.3518 15.3191 96.2913 17.2921 96.2913 18.4756C96.2913 18.9614 96.4717 19.811 97.2845 19.811C97.5858 19.811 97.7959 19.781 98.1874 19.6591C98.1874 19.7501 98.0972 20.2968 98.0368 20.3577C97.3143 21.1773 96.2913 21.5721 95.2378 21.5721C94.2744 21.5721 93.7927 21.1773 93.5825 20.6615C93.5221 20.5096 93.4616 20.2367 93.4319 20.0848C93.4319 20.0238 93.3119 20.0548 93.3119 20.0548C91.957 21.0863 90.6626 21.5721 90.1511 21.5721C89.5188 21.5721 88.9469 21.3292 88.4652 20.8744C87.8329 20.2676 87.4116 19.2352 87.4116 18.0817C87.4116 17.7479 87.6822 16.8373 87.8635 16.5034C88.5563 16.0486 92.0779 15.168 93.2812 14.6213C93.3416 14.5913 93.4923 14.3785 93.4923 14.2875C93.5221 13.9536 93.4923 13.8627 93.4923 13.5589C93.4923 12.9521 93.3723 12.3754 93.0404 11.8896H93.0412ZM93.3723 15.229C92.3187 15.5929 90.7834 16.0486 90.5128 16.3524C90.4226 16.4434 90.272 17.081 90.272 17.4449C90.272 18.8713 91.2047 19.7819 92.2583 19.7819C92.5596 19.7819 92.951 19.7209 93.191 19.539C93.3416 19.4171 93.4319 19.2051 93.4319 18.9013C93.4616 17.9607 93.4616 15.8658 93.4616 15.35C93.4616 15.3199 93.4012 15.229 93.3714 15.229H93.3723Z" fill="#1A321D"/>
<path d="M102.192 20.2669C102.975 20.8136 103.937 21.0255 105.051 21.0255C106.706 21.0255 107.881 19.933 107.881 18.0809C107.881 16.2289 106.917 15.1973 104.479 13.5881C101.559 11.676 100.024 10.2187 100.024 7.54796C100.024 4.2086 102.733 2.32739 106.014 2.32739C108 2.32739 109.235 2.72218 110.378 2.78312C110.197 3.90654 109.986 5.12006 109.866 6.88115C109.806 6.97212 109.414 7.00303 109.355 6.94209C109.174 5.02997 108.843 4.14942 108.031 3.63364C107.338 3.14788 106.646 2.99597 105.713 2.99597C103.847 2.99597 102.733 4.30133 102.733 5.97057C102.733 7.36691 103.395 8.36845 104.599 9.27902C105.773 10.1896 106.706 10.6754 107.85 11.434C109.716 12.7085 110.921 14.0748 110.921 16.1697C110.921 19.4172 108.453 21.755 104.238 21.755C102.462 21.755 100.596 21.2393 100.055 20.8745C99.7534 20.3887 99.4223 17.4141 99.3321 16.5036C99.3926 16.3826 99.784 16.2907 99.8742 16.3826C100.446 18.5075 101.108 19.5091 102.192 20.2677V20.2669Z" fill="#1A321D"/>
<path d="M118.506 11.8896C118.024 11.131 117.121 10.7662 116.309 10.7662C115.646 10.7662 115.104 10.9481 114.894 11.1301C114.653 11.312 114.021 12.4655 113.841 12.9812C113.72 13.0422 113.269 12.6474 113.269 12.4955C113.269 12.3136 113.721 11.0691 113.841 10.9472C115.255 9.91479 117.182 9.09607 117.964 9.09607C119.439 9.09607 120.522 9.76376 121.154 10.7653C121.666 11.6149 121.816 12.8903 121.816 13.8618C121.816 15.3191 121.756 17.2921 121.756 18.4756C121.756 18.9614 121.936 19.811 122.749 19.811C123.05 19.811 123.261 19.781 123.652 19.6591C123.652 19.7501 123.562 20.2968 123.501 20.3577C122.779 21.1773 121.756 21.5721 120.702 21.5721C119.739 21.5721 119.257 21.1773 119.047 20.6615C118.987 20.5096 118.926 20.2367 118.897 20.0848C118.897 20.0238 118.777 20.0548 118.777 20.0548C117.422 21.0863 116.127 21.5721 115.616 21.5721C114.983 21.5721 114.412 21.3292 113.93 20.8744C113.298 20.2676 112.876 19.2352 112.876 18.0817C112.876 17.7479 113.147 16.8373 113.328 16.5034C114.021 16.0486 117.543 15.168 118.746 14.6213C118.806 14.5913 118.957 14.3785 118.957 14.2875C118.987 13.9536 118.957 13.8627 118.957 13.5589C118.957 12.9521 118.837 12.3754 118.505 11.8896H118.506ZM118.837 15.229C117.783 15.5929 116.248 16.0486 115.977 16.3524C115.887 16.4434 115.737 17.081 115.737 17.4449C115.737 18.8713 116.669 19.7819 117.723 19.7819C118.024 19.7819 118.416 19.7209 118.656 19.539C118.806 19.4171 118.897 19.2051 118.897 18.9013C118.926 17.9607 118.926 15.8658 118.926 15.35C118.926 15.3199 118.866 15.229 118.836 15.229H118.837Z" fill="#1A321D"/>
<path d="M124.105 20.7836C124.616 20.6926 124.827 20.6617 125.159 20.5107C125.49 20.3588 125.64 20.1468 125.67 19.2053C125.7 17.8699 125.73 13.9538 125.73 11.1011C125.73 8.03553 125.73 4.51423 125.61 3.26981C125.58 2.93596 125.549 2.57209 125.218 2.45021C124.977 2.32832 124.646 2.23736 124.135 2.1773C124.045 2.11636 124.074 1.81342 124.135 1.72157C125.58 1.6306 127.837 1.0839 128.861 0.598145C128.921 0.628173 129.011 0.719142 129.011 0.780083C128.861 1.11393 128.77 2.11548 128.77 4.02759C128.741 5.54492 128.741 7.91277 128.741 10.5844C128.741 15.7449 128.741 18.0209 128.801 19.2053C128.861 20.1459 128.952 20.3287 129.403 20.5407C129.734 20.6926 130.035 20.7226 130.396 20.7836C130.426 20.8745 130.396 21.2084 130.335 21.2994C129.975 21.2994 128.68 21.2084 127.115 21.2084C125.55 21.2084 124.557 21.2994 124.105 21.2994C124.045 21.2084 124.045 20.8745 124.105 20.7836Z" fill="#1A321D"/>
<path d="M131.208 20.7836C131.72 20.6926 131.931 20.6617 132.262 20.5107C132.593 20.3588 132.744 20.1468 132.773 19.2053C132.803 17.8699 132.834 13.9538 132.834 11.1011C132.834 8.03553 132.834 4.51423 132.713 3.26981C132.683 2.93596 132.652 2.57209 132.321 2.45021C132.081 2.32832 131.75 2.23736 131.238 2.1773C131.148 2.11636 131.178 1.81342 131.238 1.72157C132.683 1.6306 134.94 1.0839 135.964 0.598145C136.024 0.628173 136.115 0.719142 136.115 0.780083C135.964 1.11393 135.874 2.11548 135.874 4.02759C135.844 5.54492 135.844 7.91277 135.844 10.5844C135.844 15.7449 135.844 18.0209 135.904 19.2053C135.965 20.1459 136.055 20.3287 136.506 20.5407C136.837 20.6926 137.138 20.7226 137.499 20.7836C137.529 20.8745 137.499 21.2084 137.439 21.2994C137.078 21.2994 135.783 21.2084 134.218 21.2084C132.653 21.2084 131.66 21.2994 131.208 21.2994C131.148 21.2084 131.148 20.8745 131.208 20.7836Z" fill="#1A321D"/>
<path d="M144.513 21.2993C143.79 21.2993 142.677 21.2083 141.503 21.2083C139.998 21.2083 138.945 21.2993 138.312 21.2993C138.252 21.2384 138.252 20.8136 138.312 20.7835C138.673 20.7535 139.065 20.6926 139.336 20.5707C139.757 20.4188 139.878 20.0549 139.908 19.2962C139.938 18.5976 139.968 16.2607 139.968 14.7434C139.968 13.6199 139.968 12.3155 139.908 11.8597C139.908 11.6168 139.878 11.313 139.697 11.0701C139.426 10.7972 139.155 10.7063 138.673 10.5544C138.643 10.4934 138.643 10.0986 138.673 10.0386C139.425 10.0085 141.744 9.64379 143.068 9.00612C143.068 9.76478 143.007 12.4055 143.007 14.1357C143.007 15.714 143.007 18.0518 143.037 19.3872C143.067 20.2068 143.248 20.4188 143.639 20.5707C143.85 20.6316 144.121 20.7226 144.632 20.7835C144.632 20.8745 144.632 21.2393 144.511 21.2993H144.513ZM142.345 6.36536C142.104 6.48725 141.021 6.66918 140.659 6.51727C140.178 6.33533 139.967 5.7277 139.937 5.33379C139.876 4.96991 139.937 4.45324 140.117 4.21037C140.388 3.96749 141.201 3.69458 141.713 3.69458C142.285 3.69458 142.676 3.93746 142.796 4.02843C142.977 4.27131 143.037 4.72704 143.037 4.939C143.037 5.51573 142.706 6.09246 142.345 6.36536Z" fill="#1A321D"/>
<path d="M151.376 11.8896C150.894 11.131 149.991 10.7662 149.178 10.7662C148.516 10.7662 147.974 10.9481 147.764 11.1301C147.523 11.312 146.891 12.4655 146.71 12.9812C146.589 13.0422 146.138 12.6474 146.138 12.4955C146.138 12.3136 146.59 11.0691 146.71 10.9472C148.125 9.91479 150.051 9.09607 150.833 9.09607C152.308 9.09607 153.392 9.76376 154.024 10.7653C154.535 11.6149 154.686 12.8903 154.686 13.8618C154.686 15.3191 154.626 17.2921 154.626 18.4756C154.626 18.9614 154.806 19.811 155.619 19.811C155.92 19.811 156.13 19.781 156.522 19.6591C156.522 19.7501 156.431 20.2968 156.371 20.3577C155.649 21.1773 154.626 21.5721 153.572 21.5721C152.609 21.5721 152.127 21.1773 151.917 20.6615C151.856 20.5096 151.796 20.2367 151.766 20.0848C151.766 20.0238 151.646 20.0548 151.646 20.0548C150.291 21.0863 148.997 21.5721 148.485 21.5721C147.853 21.5721 147.281 21.3292 146.799 20.8744C146.167 20.2676 145.746 19.2352 145.746 18.0817C145.746 17.7479 146.017 16.8373 146.198 16.5034C146.891 16.0486 150.412 15.168 151.615 14.6213C151.676 14.5913 151.827 14.3785 151.827 14.2875C151.856 13.9536 151.827 13.8627 151.827 13.5589C151.827 12.9521 151.707 12.3754 151.375 11.8896H151.376ZM151.707 15.229C150.653 15.5929 149.118 16.0486 148.847 16.3524C148.757 16.4434 148.606 17.081 148.606 17.4449C148.606 18.8713 149.539 19.7819 150.593 19.7819C150.894 19.7819 151.285 19.7209 151.525 19.539C151.676 19.4171 151.766 19.2051 151.766 18.9013C151.796 17.9607 151.796 15.8658 151.796 15.35C151.796 15.3199 151.735 15.229 151.706 15.229H151.707Z" fill="#1A321D"/>
<path d="M158.118 20.6007C158.479 20.4788 158.69 20.1149 158.72 19.3562C158.78 18.4156 158.78 15.9868 158.78 14.7725C158.78 13.7709 158.75 12.1017 158.72 11.8279C158.659 11.5241 158.599 11.0992 157.395 10.7045C157.395 10.6435 157.425 10.3097 157.486 10.2496C159.081 10.0677 160.917 9.551 161.85 9.00519C161.879 9.03522 161.94 9.12707 161.94 9.18713C161.879 9.73382 161.85 10.4315 161.819 10.9473C161.819 11.0383 161.909 11.0692 161.94 11.0083C163.536 9.73294 164.95 9.09616 165.883 9.09616C167.207 9.09616 168.11 9.67288 168.712 10.7045C169.255 11.585 169.405 12.7685 169.405 14.1648C169.405 15.5611 169.375 18.8087 169.435 19.7802C169.435 19.993 169.525 20.205 169.706 20.3269C170.066 20.5397 170.368 20.6907 171 20.7826C171 20.8736 170.97 21.2074 170.879 21.2984C170.427 21.2984 169.826 21.2074 168.049 21.2074C166.424 21.2074 165.641 21.2684 164.769 21.2984C164.708 21.2374 164.739 20.8126 164.769 20.7826C165.221 20.7217 165.461 20.6607 165.672 20.6007C166.153 20.4788 166.244 20.1758 166.304 19.5382C166.364 18.3847 166.425 14.1657 166.183 12.9813C166.062 12.4046 165.822 11.7669 165.31 11.3722C164.919 11.0683 164.497 10.9473 163.865 10.9473C163.353 10.9473 162.631 11.1293 162.089 11.5541C161.938 11.6751 161.818 11.8879 161.818 12.2218C161.818 14.1339 161.818 18.08 161.879 19.3554C161.939 20.296 162.149 20.4788 162.541 20.5697C162.811 20.6607 163.052 20.7217 163.534 20.7826C163.564 20.8435 163.534 21.2074 163.504 21.2984C162.601 21.2684 161.608 21.2074 160.223 21.2074C158.327 21.2074 157.815 21.2684 157.213 21.2984C157.153 21.2074 157.153 20.9036 157.213 20.7826C157.484 20.7526 157.785 20.6916 158.116 20.6007H158.118Z" fill="#1A321D"/>
<path fill-rule="evenodd" clip-rule="evenodd" d="M16.8074 12.8152L23.1473 11.1L16.8074 9.38483L20.9368 4.24022L14.8089 6.60983L15.1504 0L11.5737 5.55L7.99691 0L8.33847 6.60983L2.21051 4.24022L6.33902 9.38483L0 11.1L6.33902 12.8152L2.21051 17.9598L8.33847 15.5902L7.99691 22.2L11.5737 16.65L15.1504 22.2L14.8089 15.5902L20.9368 17.9598L16.8074 12.8152Z" fill="#1A321D"/>
<path fill-rule="evenodd" clip-rule="evenodd" d="M13.085 13.4422L11.5734 12.393L10.0609 13.4422L10.5838 11.6679L9.12643 10.5418L10.9612 10.495L11.5734 8.74982L12.1847 10.495L14.0195 10.5418L12.5631 11.6679L13.085 13.4422Z" fill="white"/>
</svg>
