<svg width="303" height="119" viewBox="0 0 303 119" fill="none" xmlns="http://www.w3.org/2000/svg">
<g style="mix-blend-mode:screen">
<path d="M13.5768 115.884C15.5707 115.559 15.829 114.262 15.9582 111.212C16.0874 107.124 16.151 91.5503 16.151 80.9739C16.151 80.7794 15.8945 80.4547 15.6998 80.4547C14.541 80.3244 8.62124 80.3905 6.69105 80.4547C5.59772 80.4547 4.76087 81.1042 4.24603 81.882C3.34553 83.179 2.50868 85.0613 1.60817 87.6573C1.35169 87.8518 0.063653 87.527 0 87.2684C0.451188 84.544 1.02968 80.0016 1.22251 77.2112C1.28617 77.2112 1.6737 77.0809 1.86653 77.147C3.02539 77.7304 4.89005 78.0551 6.88576 78.0551H35.7767C35.8404 78.0551 36.0351 77.9248 36.0351 77.6662V74.8116C36.0351 74.6171 36.2279 74.2924 36.3571 74.2924C38.3509 74.2282 40.2175 73.5146 40.6687 73.4485C40.7978 73.4485 40.9907 73.5788 40.9907 73.7732C40.9907 74.1621 40.927 75.7839 40.927 80.7153C40.8634 84.8688 40.8634 93.627 40.8634 95.5093C40.8634 95.5735 41.0562 95.6396 41.1217 95.5735C44.5328 92.9776 47.62 91.6805 50.0013 91.6805C54.955 91.6805 57.7221 95.3791 57.7221 101.804C57.7221 105.244 57.7857 111.408 57.8512 114.262C57.8512 114.717 57.9804 115.301 58.4953 115.559C59.2666 116.143 60.2326 116.337 61.8408 116.534C61.97 116.728 61.8408 117.897 61.5843 118.027C60.6183 118.027 57.9168 117.767 55.0206 117.833C52.9612 117.897 50.1305 117.963 49.23 118.027C49.0372 117.833 49.0372 116.794 49.23 116.534C50.2597 116.339 51.2238 116.209 51.7387 116.014C52.6392 115.69 52.832 115.301 52.8975 112.641C53.0267 109.331 53.2196 102.778 52.6392 99.8573C52.2535 97.9108 50.709 95.1846 46.6558 95.1846C44.9184 95.1846 43.1174 95.768 41.7021 96.8724C41.1872 97.3274 40.9308 97.975 40.9308 98.43C40.9308 102.906 40.9308 111.342 41.0599 113.16C41.1236 115.171 41.4456 115.756 42.7336 116.145C43.4413 116.275 43.8925 116.405 44.9858 116.534C45.2442 116.728 45.115 117.767 44.9858 117.961C44.149 117.961 40.9326 117.831 38.3584 117.831C36.2354 117.831 33.4684 118.025 32.3095 118.025C32.0512 117.765 32.1167 116.728 32.3095 116.532C33.3392 116.402 34.1105 116.271 34.6909 116.077C35.7842 115.752 35.9771 115.038 36.0426 113.158C36.1062 111.6 36.1718 103.879 36.1718 102.257C36.1718 86.2942 36.1718 83.5699 36.1081 81.2326C36.1081 80.9078 35.9153 80.5189 35.5296 80.5189C32.8281 80.3244 23.3045 80.3886 21.8892 80.5189C21.6963 80.5831 21.5671 80.9078 21.5671 81.1023C21.5671 90.4458 21.5671 108.68 21.76 112.054C21.9528 114.908 22.5313 115.493 23.9485 115.882C24.9782 116.207 25.9424 116.337 27.8725 116.532C28.0017 116.792 27.8725 117.829 27.6797 118.025C25.0419 117.961 21.2451 117.831 18.7365 117.831C15.4546 117.831 11.2085 118.025 9.40754 118.025C9.21471 117.765 9.21471 116.728 9.40754 116.532C11.4669 116.337 12.6894 116.143 13.5899 115.882L13.5768 115.884Z" fill="white"/>
<path d="M86.6078 112.12C86.6714 112.575 86.4786 113.483 86.3513 113.677C83.3914 116.921 79.2727 118.609 76.1855 118.609C72.9036 118.609 70.3294 117.506 68.4648 115.494C65.9561 112.834 64.9901 108.941 64.9901 105.37C64.9901 99.8557 67.2423 95.9627 70.5878 93.7557C72.4543 92.5229 75.4779 91.679 77.3444 91.679C83.5206 91.679 85.6455 97.324 86.1603 100.764C86.224 100.958 86.4823 101.219 87.0608 101.347C87.1245 101.542 86.868 102.45 86.6752 102.58C84.0373 103.358 75.1577 103.813 70.0093 104.007C69.7528 104.007 69.6236 104.396 69.6236 104.721C69.6873 107.056 70.6533 109.847 72.1323 111.535C74.0625 113.742 76.3784 114.584 79.1454 114.584C81.6541 114.584 83.9718 113.934 86.3513 111.859C86.415 111.924 86.6078 112.054 86.6078 112.118V112.12ZM69.7491 101.479C69.7491 101.674 69.8783 101.934 70.0056 101.934C71.9358 101.999 79.5292 101.804 80.879 101.479C81.0082 101.415 81.2647 101.219 81.2647 100.96C80.879 97.6506 78.9488 93.7576 75.3449 93.7576C72.3851 93.7576 70.0692 96.6122 69.7472 101.479H69.7491Z" fill="white"/>
<path d="M90.211 78.4445C92.012 78.4445 93.4929 78.639 98.3174 78.639C102.241 78.639 104.881 78.5087 106.489 78.4445C106.619 78.5748 106.682 79.4187 106.489 79.5471C105.074 79.7415 104.559 79.8076 103.852 80.0663C102.436 80.5213 102.307 81.2991 102.243 83.0511C102.18 84.3501 102.18 90.8371 102.114 96.6785C102.05 102.778 102.114 111.278 102.243 113.419C102.307 114.522 102.695 115.235 103.402 115.366C104.818 115.754 109.837 115.885 112.345 115.754C113.632 115.754 114.598 115.43 115.884 114.067C117.17 112.77 119.229 109.46 120.388 106.605C120.581 106.411 121.418 106.605 121.482 106.866C121.16 108.877 119.359 115.496 118.2 117.312C117.878 117.831 117.17 118.09 114.276 118.09C109.964 118.09 102.5 117.829 98.383 117.829C95.2303 117.829 92.3341 118.024 89.6962 118.024C89.5034 117.893 89.5034 117.05 89.6962 116.921C91.4972 116.661 92.0776 116.661 92.9781 116.402C94.2006 116.077 94.6518 115.364 94.7791 113.481C94.9083 111.924 95.1011 107.512 95.1011 96.0913C95.1011 88.9529 95.1011 85.3847 94.9719 83.2437C94.9083 81.4275 94.7791 80.5194 92.9781 80.0002C92.2067 79.8057 91.1771 79.6755 90.1474 79.5452C90.0182 79.4149 90.0837 78.5068 90.211 78.4426V78.4445Z" fill="white"/>
<path d="M136.281 97.9116C135.252 96.2898 133.322 95.5101 131.584 95.5101C130.169 95.5101 129.01 95.899 128.561 96.2879C128.046 96.6768 126.694 99.1425 126.308 100.245C126.05 100.375 125.086 99.5314 125.086 99.2067C125.086 98.8178 126.052 96.1576 126.308 95.8971C129.332 93.6901 133.451 91.9399 135.123 91.9399C138.275 91.9399 140.591 93.3672 141.943 95.5082C143.036 97.3244 143.358 100.051 143.358 102.127C143.358 105.243 143.229 109.46 143.229 111.99C143.229 113.028 143.615 114.845 145.352 114.845C145.996 114.845 146.445 114.781 147.282 114.52C147.282 114.714 147.089 115.883 146.96 116.013C145.416 117.765 143.229 118.609 140.977 118.609C138.917 118.609 137.888 117.765 137.438 116.663C137.309 116.338 137.18 115.755 137.116 115.43C137.116 115.3 136.86 115.366 136.86 115.366C133.964 117.571 131.197 118.609 130.103 118.609C128.752 118.609 127.529 118.09 126.499 117.118C125.148 115.821 124.247 113.614 124.247 111.148C124.247 110.434 124.826 108.488 125.213 107.774C126.694 106.802 134.222 104.92 136.794 103.751C136.924 103.687 137.246 103.232 137.246 103.037C137.309 102.324 137.246 102.129 137.246 101.48C137.246 100.183 136.989 98.9499 136.28 97.9116H136.281ZM136.989 105.05C134.737 105.828 131.455 106.802 130.877 107.451C130.684 107.646 130.362 109.009 130.362 109.787C130.362 112.836 132.356 114.782 134.608 114.782C135.252 114.782 136.089 114.652 136.602 114.263C136.924 114.003 137.116 113.55 137.116 112.9C137.18 110.889 137.18 106.411 137.18 105.309C137.18 105.244 137.051 105.05 136.987 105.05H136.989Z" fill="white"/>
<path d="M155.842 115.819C157.515 116.987 159.573 117.44 161.954 117.44C165.493 117.44 168.003 115.105 168.003 111.146C168.003 107.187 165.944 104.982 160.732 101.542C154.49 97.4543 151.208 94.3392 151.208 88.63C151.208 81.4916 156.999 77.4702 164.012 77.4702C168.258 77.4702 170.898 78.3141 173.341 78.4444C172.955 80.8459 172.504 83.44 172.247 87.2045C172.118 87.399 171.281 87.4651 171.154 87.3348C170.768 83.2474 170.061 81.3651 168.323 80.2625C166.843 79.2241 165.364 78.8994 163.37 78.8994C159.38 78.8994 156.999 81.6898 156.999 85.2581C156.999 88.2429 158.414 90.3839 160.988 92.3304C163.497 94.2769 165.493 95.3152 167.938 96.937C171.927 99.6613 174.502 102.582 174.502 107.06C174.502 114.002 169.226 119 160.217 119C156.42 119 152.431 117.897 151.274 117.117C150.63 116.079 149.922 109.72 149.729 107.774C149.858 107.515 150.695 107.319 150.888 107.515C152.111 112.058 153.526 114.199 155.842 115.82V115.819Z" fill="white"/>
<path d="M190.715 97.9116C189.686 96.2898 187.755 95.5101 186.018 95.5101C184.603 95.5101 183.444 95.899 182.995 96.2879C182.48 96.6768 181.128 99.1425 180.742 100.245C180.484 100.375 179.52 99.5314 179.52 99.2067C179.52 98.8178 180.486 96.1576 180.742 95.8971C183.766 93.6901 187.885 91.9399 189.556 91.9399C192.709 91.9399 195.025 93.3672 196.377 95.5082C197.47 97.3244 197.792 100.051 197.792 102.127C197.792 105.243 197.663 109.46 197.663 111.99C197.663 113.028 198.049 114.845 199.786 114.845C200.43 114.845 200.879 114.781 201.716 114.52C201.716 114.714 201.523 115.883 201.394 116.013C199.85 117.765 197.663 118.609 195.411 118.609C193.351 118.609 192.322 117.765 191.872 116.663C191.743 116.338 191.614 115.755 191.55 115.43C191.55 115.3 191.294 115.366 191.294 115.366C188.398 117.571 185.631 118.609 184.537 118.609C183.186 118.609 181.963 118.09 180.933 117.118C179.582 115.821 178.681 113.614 178.681 111.148C178.681 110.434 179.26 108.488 179.647 107.774C181.128 106.802 188.656 104.92 191.228 103.751C191.357 103.687 191.679 103.232 191.679 103.037C191.743 102.324 191.679 102.129 191.679 101.48C191.679 100.183 191.423 98.9499 190.713 97.9116H190.715ZM191.423 105.05C189.171 105.828 185.889 106.802 185.31 107.451C185.118 107.646 184.796 109.009 184.796 109.787C184.796 112.836 186.789 114.782 189.042 114.782C189.686 114.782 190.522 114.652 191.035 114.263C191.357 114.003 191.55 113.55 191.55 112.9C191.614 110.889 191.614 106.411 191.614 105.309C191.614 105.244 191.485 105.05 191.421 105.05H191.423Z" fill="white"/>
<path d="M202.685 116.923C203.778 116.729 204.229 116.663 204.937 116.34C205.645 116.015 205.967 115.562 206.03 113.549C206.094 110.695 206.159 102.323 206.159 96.2253C206.159 89.6722 206.159 82.1449 205.901 79.4848C205.837 78.7711 205.772 77.9933 205.064 77.7327C204.549 77.4722 203.842 77.2777 202.748 77.1494C202.556 77.0191 202.619 76.3715 202.748 76.1752C205.837 75.9807 210.662 74.8121 212.851 73.7737C212.98 73.8379 213.173 74.0323 213.173 74.1626C212.851 74.8763 212.658 77.0172 212.658 81.1046C212.594 84.3482 212.594 89.4098 212.594 95.1209C212.594 106.152 212.594 111.018 212.723 113.549C212.852 115.56 213.045 115.951 214.009 116.404C214.717 116.729 215.361 116.793 216.132 116.923C216.196 117.118 216.132 117.831 216.003 118.026C215.232 118.026 212.465 117.831 209.119 117.831C205.774 117.831 203.651 118.026 202.685 118.026C202.556 117.831 202.556 117.118 202.685 116.923Z" fill="white"/>
<path d="M217.869 116.923C218.963 116.729 219.414 116.663 220.122 116.34C220.829 116.015 221.151 115.562 221.215 113.549C221.279 110.695 221.344 102.323 221.344 96.2253C221.344 89.6722 221.344 82.1449 221.086 79.4848C221.022 78.7711 220.957 77.9933 220.249 77.7327C219.734 77.4722 219.026 77.2777 217.933 77.1494C217.74 77.0191 217.804 76.3715 217.933 76.1752C221.022 75.9807 225.847 74.8121 228.035 73.7737C228.164 73.8379 228.357 74.0323 228.357 74.1626C228.035 74.8763 227.842 77.0172 227.842 81.1046C227.779 84.3482 227.779 89.4098 227.779 95.1209C227.779 106.152 227.779 111.018 227.908 113.549C228.037 115.56 228.23 115.951 229.194 116.404C229.902 116.729 230.546 116.793 231.317 116.923C231.381 117.118 231.317 117.831 231.188 118.026C230.416 118.026 227.649 117.831 224.304 117.831C220.958 117.831 218.835 118.026 217.869 118.026C217.74 117.831 217.74 117.118 217.869 116.923Z" fill="white"/>
<path d="M246.31 118.026C244.765 118.026 242.385 117.831 239.875 117.831C236.659 117.831 234.406 118.026 233.055 118.026C232.926 117.895 232.926 116.987 233.055 116.923C233.826 116.859 234.663 116.729 235.243 116.468C236.144 116.143 236.402 115.365 236.466 113.744C236.529 112.25 236.595 107.255 236.595 104.011C236.595 101.61 236.595 98.8212 236.466 97.847C236.466 97.3278 236.402 96.6784 236.015 96.1592C235.436 95.5758 234.856 95.3814 233.826 95.0566C233.762 94.9264 233.762 94.0824 233.826 93.9541C235.434 93.8899 240.39 93.1101 243.22 91.747C243.22 93.3688 243.091 99.0138 243.091 102.712C243.091 106.086 243.091 111.084 243.155 113.938C243.219 115.69 243.606 116.143 244.441 116.468C244.892 116.598 245.471 116.793 246.564 116.923C246.564 117.117 246.564 117.897 246.306 118.026H246.31ZM241.676 86.102C241.161 86.3626 238.845 86.7515 238.072 86.4267C237.042 86.0378 236.593 84.7389 236.528 83.8969C236.398 83.119 236.528 82.0146 236.913 81.4954C237.492 80.9762 239.229 80.3928 240.324 80.3928C241.547 80.3928 242.384 80.912 242.64 81.1065C243.026 81.6257 243.155 82.5998 243.155 83.053C243.155 84.2858 242.447 85.5186 241.676 86.102Z" fill="white"/>
<path d="M260.979 97.9116C259.95 96.2898 258.019 95.5101 256.282 95.5101C254.867 95.5101 253.708 95.899 253.259 96.2879C252.744 96.6768 251.392 99.1425 251.006 100.245C250.748 100.375 249.784 99.5314 249.784 99.2067C249.784 98.8178 250.75 96.1576 251.006 95.8971C254.03 93.6901 258.149 91.9399 259.82 91.9399C262.973 91.9399 265.289 93.3672 266.641 95.5082C267.734 97.3244 268.056 100.051 268.056 102.127C268.056 105.243 267.927 109.46 267.927 111.99C267.927 113.028 268.312 114.845 270.05 114.845C270.694 114.845 271.143 114.781 271.98 114.52C271.98 114.714 271.787 115.883 271.658 116.013C270.113 117.765 267.927 118.609 265.675 118.609C263.615 118.609 262.586 117.765 262.136 116.663C262.007 116.338 261.878 115.755 261.814 115.43C261.814 115.3 261.558 115.366 261.558 115.366C258.662 117.571 255.894 118.609 254.801 118.609C253.449 118.609 252.227 118.09 251.197 117.118C249.846 115.821 248.945 113.614 248.945 111.148C248.945 110.434 249.524 108.488 249.911 107.774C251.392 106.802 258.92 104.92 261.492 103.751C261.621 103.687 261.943 103.232 261.943 103.037C262.007 102.324 261.943 102.129 261.943 101.48C261.943 100.183 261.687 98.9499 260.977 97.9116H260.979ZM261.687 105.05C259.435 105.828 256.153 106.802 255.574 107.451C255.382 107.646 255.06 109.009 255.06 109.787C255.06 112.836 257.053 114.782 259.306 114.782C259.95 114.782 260.786 114.652 261.299 114.263C261.621 114.003 261.814 113.55 261.814 112.9C261.878 110.889 261.878 106.411 261.878 105.309C261.878 105.244 261.749 105.05 261.685 105.05H261.687Z" fill="white"/>
<path d="M275.392 116.532C276.164 116.272 276.615 115.494 276.679 113.872C276.808 111.862 276.808 106.67 276.808 104.074C276.808 101.933 276.744 98.3646 276.679 97.7793C276.549 97.1298 276.42 96.2217 273.848 95.3778C273.848 95.2475 273.911 94.5339 274.041 94.4055C277.452 94.0166 281.376 92.9121 283.37 91.7454C283.433 91.8096 283.562 92.0059 283.562 92.1343C283.433 93.3029 283.37 94.7944 283.304 95.897C283.304 96.0914 283.497 96.1575 283.562 96.0273C286.973 93.301 289.997 91.9398 291.991 91.9398C294.821 91.9398 296.752 93.1727 298.04 95.3778C299.199 97.2601 299.521 99.79 299.521 102.775C299.521 105.76 299.457 112.702 299.584 114.779C299.584 115.234 299.777 115.687 300.163 115.947C300.934 116.402 301.578 116.725 302.93 116.921C302.93 117.116 302.866 117.829 302.671 118.024C301.705 118.024 300.419 117.829 296.623 117.829C293.148 117.829 291.474 117.96 289.609 118.024C289.48 117.894 289.546 116.986 289.609 116.921C290.575 116.791 291.09 116.661 291.54 116.532C292.569 116.272 292.762 115.624 292.891 114.261C293.02 111.796 293.15 102.777 292.633 100.245C292.375 99.0121 291.862 97.649 290.766 96.8051C289.93 96.1556 289.029 95.897 287.677 95.897C286.584 95.897 285.04 96.2859 283.881 97.194C283.559 97.4527 283.302 97.9077 283.302 98.6213C283.302 102.709 283.302 111.144 283.431 113.87C283.561 115.881 284.01 116.272 284.847 116.466C285.425 116.661 285.94 116.791 286.97 116.921C287.033 117.052 286.97 117.829 286.906 118.024C284.976 117.96 282.853 117.829 279.893 117.829C275.84 117.829 274.745 117.96 273.458 118.024C273.329 117.829 273.329 117.18 273.458 116.921C274.037 116.857 274.681 116.727 275.389 116.532H275.392Z" fill="white"/>
</g>
<path fill-rule="evenodd" clip-rule="evenodd" d="M165.111 33.2787L181.575 28.8248L165.111 24.3708L175.835 11.0111L159.921 17.1646L160.808 0L151.52 14.4124L142.232 0L143.119 17.1646L127.206 11.0111L137.927 24.3708L121.465 28.8248L137.927 33.2787L127.206 46.6384L143.119 40.4849L142.232 57.6495L151.52 43.2371L160.808 57.6495L159.921 40.4849L175.835 46.6384L165.111 33.2787Z" fill="white"/>
<path fill-rule="evenodd" clip-rule="evenodd" d="M155.445 34.9071L151.52 32.1824L147.592 34.9071L148.95 30.2994L145.166 27.3752L149.93 27.2536L151.52 22.7217L153.107 27.2536L157.872 27.3752L154.09 30.2994L155.445 34.9071Z" fill="#43623E"/>
</svg>
