<svg width="74" height="71" viewBox="0 0 74 71" fill="none" xmlns="http://www.w3.org/2000/svg">
<path fill-rule="evenodd" clip-rule="evenodd" d="M53.0584 40.4555L73.0724 35.041L53.0584 29.6265L66.0942 13.3858L46.7492 20.8663L47.8274 6.10352e-05L36.5362 17.5205L25.245 6.10352e-05L26.3232 20.8663L6.97823 13.3858L20.0113 29.6265L0 35.041L20.0113 40.4555L6.97823 56.6962L26.3232 49.2157L25.245 70.0819L36.5362 52.5615L47.8274 70.0819L46.7492 49.2157L66.0942 56.6962L53.0584 40.4555Z" fill="white"/>
<path fill-rule="evenodd" clip-rule="evenodd" d="M41.3075 41.9828L36.5355 38.6705L31.7608 41.9828L33.4113 36.3815L28.8108 32.8266L34.6029 32.6788L36.5355 27.1696L38.4653 32.6788L44.2575 32.8266L39.6597 36.3815L41.3075 41.9828Z" fill="#1B321D"/>
</svg>
